{
	"patcher" : 	{
		"fileversion" : 1,
		"appversion" : 		{
			"major" : 8,
			"minor" : 6,
			"revision" : 5,
			"architecture" : "x64",
			"modernui" : 1
		}
,
		"classnamespace" : "box",
		"rect" : [ 195.0, 79.0, 834.0, 745.0 ],
		"bglocked" : 0,
		"openinpresentation" : 1,
		"default_fontsize" : 12.0,
		"default_fontface" : 0,
		"default_fontname" : "Arial",
		"gridonopen" : 1,
		"gridsize" : [ 15.0, 15.0 ],
		"gridsnaponopen" : 1,
		"objectsnaponopen" : 1,
		"statusbarvisible" : 2,
		"toolbarvisible" : 1,
		"lefttoolbarpinned" : 0,
		"toptoolbarpinned" : 0,
		"righttoolbarpinned" : 0,
		"bottomtoolbarpinned" : 0,
		"toolbars_unpinned_last_save" : 0,
		"tallnewobj" : 0,
		"boxanimatetime" : 200,
		"enablehscroll" : 1,
		"enablevscroll" : 1,
		"devicewidth" : 0.0,
		"description" : "",
		"digest" : "",
		"tags" : "",
		"style" : "",
		"subpatcher_template" : "",
		"assistshowspatchername" : 0,
		"boxes" : [ 			{
				"box" : 				{
					"id" : "obj-12",
					"maxclass" : "newobj",
					"numinlets" : 0,
					"numoutlets" : 1,
					"outlettype" : [ "" ],
					"patching_rect" : [ 285.25, 431.0, 105.0, 22.0 ],
					"text" : "r info_from_player"
				}

			}
, 			{
				"box" : 				{
					"id" : "obj-11",
					"maxclass" : "newobj",
					"numinlets" : 0,
					"numoutlets" : 1,
					"outlettype" : [ "" ],
					"patching_rect" : [ 345.0, 81.0, 105.0, 22.0 ],
					"text" : "r info_from_player"
				}

			}
, 			{
				"box" : 				{
					"id" : "obj-10",
					"maxclass" : "newobj",
					"numinlets" : 1,
					"numoutlets" : 0,
					"patching_rect" : [ 19.0, 97.0, 107.0, 22.0 ],
					"text" : "s info_from_player"
				}

			}
, 			{
				"box" : 				{
					"id" : "obj-9",
					"maxclass" : "newobj",
					"numinlets" : 3,
					"numoutlets" : 3,
					"outlettype" : [ "", "", "" ],
					"patching_rect" : [ 285.25, 461.0, 123.0, 22.0 ],
					"text" : "route state matches"
				}

			}
, 			{
				"box" : 				{
					"id" : "obj-156",
					"maxclass" : "newobj",
					"numinlets" : 8,
					"numoutlets" : 8,
					"outlettype" : [ "", "", "", "", "", "", "", "" ],
					"patching_rect" : [ 276.0, 509.0, 388.0, 22.0 ],
					"text" : "route corpusview initialized terminated midi audio output_type learned"
				}

			}
, 			{
				"box" : 				{
					"fontface" : 1,
					"fontsize" : 10.0,
					"id" : "obj-206",
					"maxclass" : "comment",
					"numinlets" : 1,
					"numoutlets" : 0,
					"patching_rect" : [ 621.0, 607.0, 47.0, 18.0 ],
					"presentation" : 1,
					"presentation_rect" : [ 185.0, 28.5, 37.0, 18.0 ],
					"text" : "Match",
					"textcolor" : [ 0.933333333333333, 0.933333333333333, 0.933333333333333, 1.0 ],
					"textjustification" : 1
				}

			}
, 			{
				"box" : 				{
					"bgcolor" : [ 0.2, 0.2, 0.2, 0.0 ],
					"hidden" : 1,
					"id" : "obj-229",
					"ignoreclick" : 1,
					"maxclass" : "led",
					"numinlets" : 1,
					"numoutlets" : 1,
					"oncolor" : [ 1.0, 0.709803921568627, 0.196078431372549, 1.0 ],
					"outlettype" : [ "int" ],
					"parameter_enable" : 0,
					"patching_rect" : [ 594.0, 676.0, 24.0, 24.0 ],
					"presentation" : 1,
					"presentation_rect" : [ 195.0, 14.5, 18.0, 18.0 ]
				}

			}
, 			{
				"box" : 				{
					"bgcolor" : [ 0.2, 0.2, 0.2, 0.0 ],
					"hidden" : 1,
					"id" : "obj-221",
					"ignoreclick" : 1,
					"maxclass" : "led",
					"numinlets" : 1,
					"numoutlets" : 1,
					"oncolor" : [ 0.996078431372549, 0.423529411764706, 0.423529411764706, 1.0 ],
					"outlettype" : [ "int" ],
					"parameter_enable" : 0,
					"patching_rect" : [ 545.0, 676.0, 24.0, 24.0 ],
					"presentation" : 1,
					"presentation_rect" : [ 195.0, 14.5, 18.0, 18.0 ]
				}

			}
, 			{
				"box" : 				{
					"bgcolor" : [ 0.2, 0.2, 0.2, 0.0 ],
					"id" : "obj-220",
					"ignoreclick" : 1,
					"maxclass" : "led",
					"numinlets" : 1,
					"numoutlets" : 1,
					"oncolor" : [ 0.482352941176471, 0.847058823529412, 0.36078431372549, 1.0 ],
					"outlettype" : [ "int" ],
					"parameter_enable" : 0,
					"patching_rect" : [ 495.0, 676.0, 24.0, 24.0 ],
					"presentation" : 1,
					"presentation_rect" : [ 195.0, 14.5, 18.0, 18.0 ]
				}

			}
, 			{
				"box" : 				{
					"bgcolor" : [ 0.2, 0.2, 0.2, 0.0 ],
					"id" : "obj-190",
					"ignoreclick" : 1,
					"maxclass" : "led",
					"numinlets" : 1,
					"numoutlets" : 1,
					"oncolor" : [ 0.933333333333333, 0.933333333333333, 0.933333333333333, 1.0 ],
					"outlettype" : [ "int" ],
					"parameter_enable" : 0,
					"patching_rect" : [ 627.0, 676.0, 24.0, 24.0 ],
					"presentation" : 1,
					"presentation_rect" : [ 195.0, 14.5, 18.0, 18.0 ]
				}

			}
, 			{
				"box" : 				{
					"angle" : 270.0,
					"bgcolor" : [ 0.2, 0.2, 0.2, 1.0 ],
					"id" : "obj-215",
					"maxclass" : "panel",
					"mode" : 0,
					"numinlets" : 1,
					"numoutlets" : 0,
					"patching_rect" : [ 621.0, 607.0, 46.999999999999773, 18.0 ],
					"presentation" : 1,
					"presentation_rect" : [ 194.0, 13.5, 20.0, 20.0 ],
					"proportion" : 0.5
				}

			}
, 			{
				"box" : 				{
					"color" : [ 0.8266150951, 0.1539679319, 0.6292977333, 1.0 ],
					"id" : "obj-251",
					"maxclass" : "newobj",
					"numinlets" : 1,
					"numoutlets" : 1,
					"outlettype" : [ "" ],
					"patching_rect" : [ 565.0, 575.0, 103.0, 22.0 ],
					"text" : "loadmess timeout"
				}

			}
, 			{
				"box" : 				{
					"color" : [ 0.3574509025, 0.5837691426, 0.6141206622, 1.0 ],
					"id" : "obj-250",
					"maxclass" : "newobj",
					"numinlets" : 1,
					"numoutlets" : 3,
					"outlettype" : [ "", "", "" ],
					"patcher" : 					{
						"fileversion" : 1,
						"appversion" : 						{
							"major" : 8,
							"minor" : 6,
							"revision" : 5,
							"architecture" : "x64",
							"modernui" : 1
						}
,
						"classnamespace" : "box",
						"rect" : [ 59.0, 106.0, 640.0, 480.0 ],
						"bglocked" : 0,
						"openinpresentation" : 0,
						"default_fontsize" : 12.0,
						"default_fontface" : 0,
						"default_fontname" : "Arial",
						"gridonopen" : 1,
						"gridsize" : [ 15.0, 15.0 ],
						"gridsnaponopen" : 1,
						"objectsnaponopen" : 1,
						"statusbarvisible" : 2,
						"toolbarvisible" : 1,
						"lefttoolbarpinned" : 0,
						"toptoolbarpinned" : 0,
						"righttoolbarpinned" : 0,
						"bottomtoolbarpinned" : 0,
						"toolbars_unpinned_last_save" : 0,
						"tallnewobj" : 0,
						"boxanimatetime" : 200,
						"enablehscroll" : 1,
						"enablevscroll" : 1,
						"devicewidth" : 0.0,
						"description" : "",
						"digest" : "",
						"tags" : "",
						"style" : "",
						"subpatcher_template" : "",
						"assistshowspatchername" : 0,
						"boxes" : [ 							{
								"box" : 								{
									"id" : "obj-234",
									"maxclass" : "newobj",
									"numinlets" : 1,
									"numoutlets" : 2,
									"outlettype" : [ "int", "int" ],
									"patching_rect" : [ 178.0, 130.439567114741294, 32.0, 22.0 ],
									"text" : "t 0 1"
								}

							}
, 							{
								"box" : 								{
									"id" : "obj-232",
									"maxclass" : "newobj",
									"numinlets" : 1,
									"numoutlets" : 2,
									"outlettype" : [ "int", "int" ],
									"patching_rect" : [ 114.5, 130.439567114741294, 32.0, 22.0 ],
									"text" : "t 0 1"
								}

							}
, 							{
								"box" : 								{
									"id" : "obj-231",
									"maxclass" : "newobj",
									"numinlets" : 1,
									"numoutlets" : 2,
									"outlettype" : [ "int", "int" ],
									"patching_rect" : [ 50.0, 130.439567114741294, 32.0, 22.0 ],
									"text" : "t 0 1"
								}

							}
, 							{
								"box" : 								{
									"id" : "obj-230",
									"maxclass" : "message",
									"numinlets" : 2,
									"numoutlets" : 1,
									"outlettype" : [ "" ],
									"patching_rect" : [ 178.0, 209.5, 61.0, 22.0 ],
									"text" : "hidden $1"
								}

							}
, 							{
								"box" : 								{
									"id" : "obj-222",
									"maxclass" : "message",
									"numinlets" : 2,
									"numoutlets" : 1,
									"outlettype" : [ "" ],
									"patching_rect" : [ 114.5, 209.5, 61.0, 22.0 ],
									"text" : "hidden $1"
								}

							}
, 							{
								"box" : 								{
									"id" : "obj-219",
									"maxclass" : "message",
									"numinlets" : 2,
									"numoutlets" : 1,
									"outlettype" : [ "" ],
									"patching_rect" : [ 50.0, 209.5, 61.0, 22.0 ],
									"text" : "hidden $1"
								}

							}
, 							{
								"box" : 								{
									"id" : "obj-207",
									"maxclass" : "newobj",
									"numinlets" : 4,
									"numoutlets" : 4,
									"outlettype" : [ "bang", "bang", "bang", "" ],
									"patching_rect" : [ 50.0, 100.0, 211.0, 22.0 ],
									"text" : "sel match no_match fallback"
								}

							}
, 							{
								"box" : 								{
									"comment" : "",
									"id" : "obj-246",
									"index" : 1,
									"maxclass" : "inlet",
									"numinlets" : 0,
									"numoutlets" : 1,
									"outlettype" : [ "" ],
									"patching_rect" : [ 50.0, 39.999992114741303, 30.0, 30.0 ]
								}

							}
, 							{
								"box" : 								{
									"comment" : "",
									"id" : "obj-247",
									"index" : 1,
									"maxclass" : "outlet",
									"numinlets" : 1,
									"numoutlets" : 0,
									"patching_rect" : [ 50.0, 246.499992114741303, 30.0, 30.0 ]
								}

							}
, 							{
								"box" : 								{
									"comment" : "",
									"id" : "obj-248",
									"index" : 2,
									"maxclass" : "outlet",
									"numinlets" : 1,
									"numoutlets" : 0,
									"patching_rect" : [ 114.5, 246.499992114741303, 30.0, 30.0 ]
								}

							}
, 							{
								"box" : 								{
									"comment" : "",
									"id" : "obj-249",
									"index" : 3,
									"maxclass" : "outlet",
									"numinlets" : 1,
									"numoutlets" : 0,
									"patching_rect" : [ 178.0, 246.499992114741303, 30.0, 30.0 ]
								}

							}
 ],
						"lines" : [ 							{
								"patchline" : 								{
									"destination" : [ "obj-231", 0 ],
									"source" : [ "obj-207", 0 ]
								}

							}
, 							{
								"patchline" : 								{
									"destination" : [ "obj-232", 0 ],
									"source" : [ "obj-207", 1 ]
								}

							}
, 							{
								"patchline" : 								{
									"destination" : [ "obj-234", 0 ],
									"source" : [ "obj-207", 2 ]
								}

							}
, 							{
								"patchline" : 								{
									"destination" : [ "obj-247", 0 ],
									"source" : [ "obj-219", 0 ]
								}

							}
, 							{
								"patchline" : 								{
									"destination" : [ "obj-248", 0 ],
									"source" : [ "obj-222", 0 ]
								}

							}
, 							{
								"patchline" : 								{
									"destination" : [ "obj-249", 0 ],
									"source" : [ "obj-230", 0 ]
								}

							}
, 							{
								"patchline" : 								{
									"destination" : [ "obj-219", 0 ],
									"source" : [ "obj-231", 0 ]
								}

							}
, 							{
								"patchline" : 								{
									"destination" : [ "obj-222", 0 ],
									"order" : 1,
									"source" : [ "obj-231", 1 ]
								}

							}
, 							{
								"patchline" : 								{
									"destination" : [ "obj-230", 0 ],
									"order" : 0,
									"source" : [ "obj-231", 1 ]
								}

							}
, 							{
								"patchline" : 								{
									"destination" : [ "obj-219", 0 ],
									"order" : 1,
									"source" : [ "obj-232", 1 ]
								}

							}
, 							{
								"patchline" : 								{
									"destination" : [ "obj-222", 0 ],
									"source" : [ "obj-232", 0 ]
								}

							}
, 							{
								"patchline" : 								{
									"destination" : [ "obj-230", 0 ],
									"order" : 0,
									"source" : [ "obj-232", 1 ]
								}

							}
, 							{
								"patchline" : 								{
									"destination" : [ "obj-219", 0 ],
									"order" : 1,
									"source" : [ "obj-234", 1 ]
								}

							}
, 							{
								"patchline" : 								{
									"destination" : [ "obj-222", 0 ],
									"order" : 0,
									"source" : [ "obj-234", 1 ]
								}

							}
, 							{
								"patchline" : 								{
									"destination" : [ "obj-230", 0 ],
									"source" : [ "obj-234", 0 ]
								}

							}
, 							{
								"patchline" : 								{
									"destination" : [ "obj-207", 0 ],
									"source" : [ "obj-246", 0 ]
								}

							}
 ]
					}
,
					"patching_rect" : [ 495.0, 605.0, 118.0, 22.0 ],
					"saved_object_attributes" : 					{
						"description" : "",
						"digest" : "",
						"globalpatchername" : "",
						"tags" : ""
					}
,
					"text" : "p output_led_control"
				}

			}
, 			{
				"box" : 				{
					"color" : [ 0.8266150951, 0.1539679319, 0.6292977333, 1.0 ],
					"id" : "obj-242",
					"maxclass" : "newobj",
					"numinlets" : 1,
					"numoutlets" : 1,
					"outlettype" : [ "" ],
					"patching_rect" : [ 621.0, 636.0, 70.0, 22.0 ],
					"text" : "loadmess 1"
				}

			}
, 			{
				"box" : 				{
					"id" : "obj-4",
					"maxclass" : "newobj",
					"numinlets" : 3,
					"numoutlets" : 3,
					"outlettype" : [ "", "", "" ],
					"patching_rect" : [ 569.5, 214.0, 205.0, 22.0 ],
					"text" : "route YinDiscretePitch OnsetChroma"
				}

			}
, 			{
				"box" : 				{
					"id" : "obj-3",
					"maxclass" : "newobj",
					"numinlets" : 3,
					"numoutlets" : 3,
					"outlettype" : [ "", "", "" ],
					"patching_rect" : [ 362.5, 214.0, 205.0, 22.0 ],
					"text" : "route YinDiscretePitch OnsetChroma"
				}

			}
, 			{
				"box" : 				{
					"id" : "obj-2",
					"maxclass" : "newobj",
					"numinlets" : 4,
					"numoutlets" : 4,
					"outlettype" : [ "", "", "", "" ],
					"patching_rect" : [ 345.0, 148.0, 151.0, 22.0 ],
					"text" : "route total internal external"
				}

			}
, 			{
				"box" : 				{
					"id" : "obj-37",
					"maxclass" : "newobj",
					"numinlets" : 2,
					"numoutlets" : 2,
					"outlettype" : [ "", "" ],
					"patching_rect" : [ 19.0, 71.0, 83.0, 22.0 ],
					"text" : "route /Player1"
				}

			}
, 			{
				"box" : 				{
					"color" : [ 0.614107191562653, 0.475544303655624, 1.0, 1.0 ],
					"fontface" : 1,
					"fontsize" : 18.0,
					"id" : "obj-34",
					"maxclass" : "newobj",
					"numinlets" : 1,
					"numoutlets" : 1,
					"outlettype" : [ "" ],
					"patching_rect" : [ 19.0, 38.0, 149.0, 29.0 ],
					"text" : "udpreceive 1237"
				}

			}
, 			{
				"box" : 				{
					"id" : "obj-470",
					"maxclass" : "newobj",
					"numinlets" : 2,
					"numoutlets" : 2,
					"outlettype" : [ "", "" ],
					"patching_rect" : [ 345.0, 109.0, 137.0, 22.0 ],
					"text" : "route matches_statistics"
				}

			}
, 			{
				"box" : 				{
					"color" : [ 0.8266150951, 0.1539679319, 0.6292977333, 1.0 ],
					"id" : "obj-387",
					"maxclass" : "newobj",
					"numinlets" : 0,
					"numoutlets" : 5,
					"outlettype" : [ "", "", "", "", "" ],
					"patcher" : 					{
						"fileversion" : 1,
						"appversion" : 						{
							"major" : 8,
							"minor" : 6,
							"revision" : 5,
							"architecture" : "x64",
							"modernui" : 1
						}
,
						"classnamespace" : "box",
						"rect" : [ 59.0, 106.0, 640.0, 480.0 ],
						"bglocked" : 0,
						"openinpresentation" : 0,
						"default_fontsize" : 12.0,
						"default_fontface" : 0,
						"default_fontname" : "Arial",
						"gridonopen" : 1,
						"gridsize" : [ 15.0, 15.0 ],
						"gridsnaponopen" : 1,
						"objectsnaponopen" : 1,
						"statusbarvisible" : 2,
						"toolbarvisible" : 1,
						"lefttoolbarpinned" : 0,
						"toptoolbarpinned" : 0,
						"righttoolbarpinned" : 0,
						"bottomtoolbarpinned" : 0,
						"toolbars_unpinned_last_save" : 0,
						"tallnewobj" : 0,
						"boxanimatetime" : 200,
						"enablehscroll" : 1,
						"enablevscroll" : 1,
						"devicewidth" : 0.0,
						"description" : "",
						"digest" : "",
						"tags" : "",
						"style" : "",
						"subpatcher_template" : "",
						"assistshowspatchername" : 0,
						"boxes" : [ 							{
								"box" : 								{
									"color" : [ 0.8266150951, 0.1539679319, 0.6292977333, 1.0 ],
									"id" : "obj-195",
									"maxclass" : "newobj",
									"numinlets" : 1,
									"numoutlets" : 1,
									"outlettype" : [ "" ],
									"patching_rect" : [ 147.000027236863843, 206.298411741341852, 207.0, 22.0 ],
									"text" : "loadmess color 0.827 0.424 0.996 1."
								}

							}
, 							{
								"box" : 								{
									"color" : [ 0.827450980392157, 0.152941176470588, 0.627450980392157, 1.0 ],
									"id" : "obj-90",
									"maxclass" : "newobj",
									"numinlets" : 1,
									"numoutlets" : 1,
									"outlettype" : [ "" ],
									"patching_rect" : [ 50.0, 100.0, 183.0, 22.0 ],
									"text" : "loadmess color 0.93 0.93 0.93 1."
								}

							}
, 							{
								"box" : 								{
									"color" : [ 0.8266150951, 0.1539679319, 0.6292977333, 1.0 ],
									"id" : "obj-88",
									"maxclass" : "newobj",
									"numinlets" : 1,
									"numoutlets" : 1,
									"outlettype" : [ "" ],
									"patching_rect" : [ 68.907660281655581, 127.432803913780617, 176.0, 22.0 ],
									"text" : "loadmess color 0.5 0.84 0.36 1."
								}

							}
, 							{
								"box" : 								{
									"color" : [ 0.8266150951, 0.1539679319, 0.6292977333, 1.0 ],
									"id" : "obj-85",
									"maxclass" : "newobj",
									"numinlets" : 1,
									"numoutlets" : 1,
									"outlettype" : [ "" ],
									"patching_rect" : [ 107.985831660177155, 182.298411741341852, 163.0, 22.0 ],
									"text" : "loadmess color 0.42 0.5 1. 1."
								}

							}
, 							{
								"box" : 								{
									"color" : [ 0.8266150951, 0.1539679319, 0.6292977333, 1.0 ],
									"id" : "obj-84",
									"maxclass" : "newobj",
									"numinlets" : 1,
									"numoutlets" : 1,
									"outlettype" : [ "" ],
									"patching_rect" : [ 88.071312570197279, 154.865607827561234, 169.0, 22.0 ],
									"text" : "loadmess color 1. 0.42 0.42 1."
								}

							}
, 							{
								"box" : 								{
									"comment" : "",
									"id" : "obj-382",
									"index" : 1,
									"maxclass" : "outlet",
									"numinlets" : 1,
									"numoutlets" : 0,
									"patching_rect" : [ 50.000027236863843, 264.298454114741389, 30.0, 30.0 ]
								}

							}
, 							{
								"box" : 								{
									"comment" : "",
									"id" : "obj-383",
									"index" : 2,
									"maxclass" : "outlet",
									"numinlets" : 1,
									"numoutlets" : 0,
									"patching_rect" : [ 85.000027236863843, 264.298454114741389, 30.0, 30.0 ]
								}

							}
, 							{
								"box" : 								{
									"comment" : "",
									"id" : "obj-384",
									"index" : 3,
									"maxclass" : "outlet",
									"numinlets" : 1,
									"numoutlets" : 0,
									"patching_rect" : [ 120.000027236863843, 264.298454114741389, 30.0, 30.0 ]
								}

							}
, 							{
								"box" : 								{
									"comment" : "",
									"id" : "obj-385",
									"index" : 4,
									"maxclass" : "outlet",
									"numinlets" : 1,
									"numoutlets" : 0,
									"patching_rect" : [ 155.000027236863843, 264.298454114741389, 30.0, 30.0 ]
								}

							}
, 							{
								"box" : 								{
									"comment" : "",
									"id" : "obj-386",
									"index" : 5,
									"maxclass" : "outlet",
									"numinlets" : 1,
									"numoutlets" : 0,
									"patching_rect" : [ 190.000027236863843, 264.298454114741389, 30.0, 30.0 ]
								}

							}
 ],
						"lines" : [ 							{
								"patchline" : 								{
									"destination" : [ "obj-386", 0 ],
									"source" : [ "obj-195", 0 ]
								}

							}
, 							{
								"patchline" : 								{
									"destination" : [ "obj-384", 0 ],
									"source" : [ "obj-84", 0 ]
								}

							}
, 							{
								"patchline" : 								{
									"destination" : [ "obj-385", 0 ],
									"source" : [ "obj-85", 0 ]
								}

							}
, 							{
								"patchline" : 								{
									"destination" : [ "obj-383", 0 ],
									"source" : [ "obj-88", 0 ]
								}

							}
, 							{
								"patchline" : 								{
									"destination" : [ "obj-382", 0 ],
									"source" : [ "obj-90", 0 ]
								}

							}
 ]
					}
,
					"patching_rect" : [ 665.0, 270.0, 61.0, 22.0 ],
					"saved_object_attributes" : 					{
						"description" : "",
						"digest" : "",
						"globalpatchername" : "",
						"tags" : ""
					}
,
					"text" : "p colors"
				}

			}
, 			{
				"box" : 				{
					"id" : "obj-193",
					"maxclass" : "message",
					"numinlets" : 2,
					"numoutlets" : 1,
					"outlettype" : [ "" ],
					"patching_rect" : [ 491.0, 308.0, 41.0, 22.0 ],
					"text" : "set $1"
				}

			}
, 			{
				"box" : 				{
					"id" : "obj-194",
					"maxclass" : "newobj",
					"numinlets" : 1,
					"numoutlets" : 2,
					"outlettype" : [ "int", "int" ],
					"patching_rect" : [ 469.0, 280.0, 41.5, 22.0 ],
					"text" : "t i i"
				}

			}
, 			{
				"box" : 				{
					"bgmode" : 0,
					"border" : 0,
					"clickthrough" : 0,
					"enablehscroll" : 0,
					"enablevscroll" : 0,
					"id" : "obj-123",
					"lockeddragscroll" : 0,
					"lockedsize" : 0,
					"maxclass" : "bpatcher",
					"name" : "peakmeter.maxpat",
					"numinlets" : 1,
					"numoutlets" : 0,
					"offset" : [ 0.0, 0.0 ],
					"patching_rect" : [ 469.0, 374.0, 32.5, 14.0 ],
					"presentation" : 1,
					"presentation_rect" : [ 46.0, 16.0, 33.0, 15.0 ],
					"viewvisibility" : 1
				}

			}
, 			{
				"box" : 				{
					"fontface" : 1,
					"fontsize" : 10.0,
					"id" : "obj-140",
					"maxclass" : "comment",
					"numinlets" : 1,
					"numoutlets" : 0,
					"patching_rect" : [ 491.0, 335.0, 41.0, 18.0 ],
					"presentation" : 1,
					"presentation_rect" : [ 46.0, 27.0, 33.0, 18.0 ],
					"text" : "10",
					"textcolor" : [ 0.827450980392157, 0.423529411764706, 0.996078431372549, 1.0 ],
					"textjustification" : 1
				}

			}
, 			{
				"box" : 				{
					"bgcolor" : [ 0.372549019607843, 0.372549019607843, 0.372549019607843, 1.0 ],
					"id" : "obj-1073",
					"maxclass" : "multislider",
					"numinlets" : 1,
					"numoutlets" : 2,
					"outlettype" : [ "", "" ],
					"parameter_enable" : 0,
					"parameter_mappable" : 0,
					"patching_rect" : [ 276.0, 374.0, 14.0, 22.0 ],
					"setminmax" : [ 0.0, 1.0 ],
					"setstyle" : 1,
					"slidercolor" : [ 0.933333333333333, 0.933333333333333, 0.933333333333333, 1.0 ],
					"spacing" : 2
				}

			}
, 			{
				"box" : 				{
					"bgmode" : 0,
					"border" : 0,
					"clickthrough" : 0,
					"enablehscroll" : 0,
					"enablevscroll" : 0,
					"id" : "obj-91",
					"lockeddragscroll" : 0,
					"lockedsize" : 0,
					"maxclass" : "bpatcher",
					"name" : "peakmeter.maxpat",
					"numinlets" : 1,
					"numoutlets" : 0,
					"offset" : [ 0.0, 0.0 ],
					"patching_rect" : [ 326.0, 374.0, 32.5, 14.0 ],
					"presentation" : 1,
					"presentation_rect" : [ 154.0, 16.0, 33.0, 15.0 ],
					"viewvisibility" : 1
				}

			}
, 			{
				"box" : 				{
					"bgmode" : 0,
					"border" : 0,
					"clickthrough" : 0,
					"enablehscroll" : 0,
					"enablevscroll" : 0,
					"id" : "obj-89",
					"lockeddragscroll" : 0,
					"lockedsize" : 0,
					"maxclass" : "bpatcher",
					"name" : "peakmeter.maxpat",
					"numinlets" : 1,
					"numoutlets" : 0,
					"offset" : [ 0.0, 0.0 ],
					"patching_rect" : [ 402.0, 374.0, 32.5, 14.0 ],
					"presentation" : 1,
					"presentation_rect" : [ 10.0, 16.0, 33.0, 15.0 ],
					"viewvisibility" : 1
				}

			}
, 			{
				"box" : 				{
					"bgmode" : 0,
					"border" : 0,
					"clickthrough" : 0,
					"enablehscroll" : 0,
					"enablevscroll" : 0,
					"id" : "obj-87",
					"lockeddragscroll" : 0,
					"lockedsize" : 0,
					"maxclass" : "bpatcher",
					"name" : "peakmeter.maxpat",
					"numinlets" : 1,
					"numoutlets" : 0,
					"offset" : [ 0.0, 0.0 ],
					"patching_rect" : [ 602.0, 374.0, 32.5, 14.0 ],
					"presentation" : 1,
					"presentation_rect" : [ 115.0, 16.0, 33.0, 15.0 ],
					"viewvisibility" : 1
				}

			}
, 			{
				"box" : 				{
					"bgmode" : 0,
					"border" : 0,
					"clickthrough" : 0,
					"enablehscroll" : 0,
					"enablevscroll" : 0,
					"id" : "obj-79",
					"lockeddragscroll" : 0,
					"lockedsize" : 0,
					"maxclass" : "bpatcher",
					"name" : "peakmeter.maxpat",
					"numinlets" : 1,
					"numoutlets" : 0,
					"offset" : [ 0.0, 0.0 ],
					"patching_rect" : [ 535.0, 374.0, 32.5, 14.0 ],
					"presentation" : 1,
					"presentation_rect" : [ 81.0, 16.0, 33.0, 15.0 ],
					"viewvisibility" : 1
				}

			}
, 			{
				"box" : 				{
					"fontface" : 1,
					"fontsize" : 10.0,
					"id" : "obj-486",
					"maxclass" : "comment",
					"numinlets" : 1,
					"numoutlets" : 0,
					"patching_rect" : [ 425.0, 335.0, 41.0, 18.0 ],
					"presentation" : 1,
					"presentation_rect" : [ 10.0, 27.0, 33.0, 18.0 ],
					"text" : "0",
					"textcolor" : [ 0.481437705647327, 0.846666309931507, 0.361908344245232, 1.0 ],
					"textjustification" : 1
				}

			}
, 			{
				"box" : 				{
					"fontface" : 1,
					"fontsize" : 10.0,
					"id" : "obj-485",
					"maxclass" : "comment",
					"numinlets" : 1,
					"numoutlets" : 0,
					"patching_rect" : [ 557.0, 335.0, 41.0, 18.0 ],
					"presentation" : 1,
					"presentation_rect" : [ 81.0, 27.0, 33.0, 18.0 ],
					"text" : "0",
					"textcolor" : [ 0.996078431372549, 0.423529411764706, 0.423529411764706, 1.0 ],
					"textjustification" : 1
				}

			}
, 			{
				"box" : 				{
					"fontface" : 1,
					"fontsize" : 10.0,
					"id" : "obj-484",
					"maxclass" : "comment",
					"numinlets" : 1,
					"numoutlets" : 0,
					"patching_rect" : [ 624.0, 335.0, 41.0, 18.0 ],
					"presentation" : 1,
					"presentation_rect" : [ 115.0, 27.0, 33.0, 18.0 ],
					"text" : "0",
					"textcolor" : [ 0.423529411764706, 0.494117647058824, 0.996078431372549, 1.0 ],
					"textjustification" : 1
				}

			}
, 			{
				"box" : 				{
					"fontface" : 1,
					"fontsize" : 10.0,
					"id" : "obj-483",
					"maxclass" : "comment",
					"numinlets" : 1,
					"numoutlets" : 0,
					"patching_rect" : [ 349.0, 335.0, 41.0, 18.0 ],
					"presentation" : 1,
					"presentation_rect" : [ 151.0, 27.0, 40.0, 18.0 ],
					"text" : "0",
					"textcolor" : [ 0.933333333333333, 0.933333333333333, 0.933333333333333, 1.0 ],
					"textjustification" : 1
				}

			}
, 			{
				"box" : 				{
					"id" : "obj-481",
					"maxclass" : "message",
					"numinlets" : 2,
					"numoutlets" : 1,
					"outlettype" : [ "" ],
					"patching_rect" : [ 624.0, 308.0, 41.0, 22.0 ],
					"text" : "set $1"
				}

			}
, 			{
				"box" : 				{
					"id" : "obj-482",
					"maxclass" : "newobj",
					"numinlets" : 1,
					"numoutlets" : 2,
					"outlettype" : [ "int", "int" ],
					"patching_rect" : [ 602.0, 280.0, 41.5, 22.0 ],
					"text" : "t i i"
				}

			}
, 			{
				"box" : 				{
					"id" : "obj-479",
					"maxclass" : "message",
					"numinlets" : 2,
					"numoutlets" : 1,
					"outlettype" : [ "" ],
					"patching_rect" : [ 557.0, 308.0, 41.0, 22.0 ],
					"text" : "set $1"
				}

			}
, 			{
				"box" : 				{
					"id" : "obj-480",
					"maxclass" : "newobj",
					"numinlets" : 1,
					"numoutlets" : 2,
					"outlettype" : [ "int", "int" ],
					"patching_rect" : [ 535.0, 280.0, 41.5, 22.0 ],
					"text" : "t i i"
				}

			}
, 			{
				"box" : 				{
					"id" : "obj-477",
					"maxclass" : "message",
					"numinlets" : 2,
					"numoutlets" : 1,
					"outlettype" : [ "" ],
					"patching_rect" : [ 425.0, 308.0, 41.0, 22.0 ],
					"text" : "set $1"
				}

			}
, 			{
				"box" : 				{
					"id" : "obj-478",
					"maxclass" : "newobj",
					"numinlets" : 1,
					"numoutlets" : 2,
					"outlettype" : [ "int", "int" ],
					"patching_rect" : [ 402.0, 280.0, 41.5, 22.0 ],
					"text" : "t i i"
				}

			}
, 			{
				"box" : 				{
					"id" : "obj-475",
					"maxclass" : "message",
					"numinlets" : 2,
					"numoutlets" : 1,
					"outlettype" : [ "" ],
					"patching_rect" : [ 349.0, 308.0, 41.0, 22.0 ],
					"text" : "set $1"
				}

			}
, 			{
				"box" : 				{
					"id" : "obj-476",
					"maxclass" : "newobj",
					"numinlets" : 1,
					"numoutlets" : 2,
					"outlettype" : [ "int", "int" ],
					"patching_rect" : [ 326.0, 280.0, 41.5, 22.0 ],
					"text" : "t i i"
				}

			}
, 			{
				"box" : 				{
					"fontface" : 1,
					"fontsize" : 10.0,
					"id" : "obj-240",
					"maxclass" : "comment",
					"numinlets" : 1,
					"numoutlets" : 0,
					"patching_rect" : [ 841.0, 109.0, 102.0, 18.0 ],
					"presentation" : 1,
					"presentation_rect" : [ 8.0, 47.0, 209.383331060125897, 18.0 ],
					"text" : "Number of matches",
					"textcolor" : [ 0.933333333333333, 0.933333333333333, 0.933333333333333, 1.0 ],
					"textjustification" : 1
				}

			}
, 			{
				"box" : 				{
					"color" : [ 0.8266150951, 0.1539679319, 0.6292977333, 1.0 ],
					"fontface" : 0,
					"id" : "obj-45",
					"maxclass" : "newobj",
					"numinlets" : 1,
					"numoutlets" : 1,
					"outlettype" : [ "" ],
					"patching_rect" : [ 790.0, 238.0, 80.0, 22.0 ],
					"text" : "loadmess 0"
				}

			}
, 			{
				"box" : 				{
					"angle" : 270.0,
					"bgcolor" : [ 0.2, 0.2, 0.2, 1.0 ],
					"id" : "obj-487",
					"maxclass" : "panel",
					"mode" : 0,
					"numinlets" : 1,
					"numoutlets" : 0,
					"patching_rect" : [ 841.0, 109.0, 107.0, 18.0 ],
					"presentation" : 1,
					"presentation_rect" : [ 163.0, 12.0, 40.0, 33.625 ],
					"proportion" : 0.5
				}

			}
, 			{
				"box" : 				{
					"angle" : 270.0,
					"bgcolor" : [ 0.2, 0.2, 0.2, 1.0 ],
					"id" : "obj-488",
					"maxclass" : "panel",
					"mode" : 0,
					"numinlets" : 1,
					"numoutlets" : 0,
					"patching_rect" : [ 841.0, 109.0, 22.0, 18.0 ],
					"presentation" : 1,
					"presentation_rect" : [ 10.0, 12.0, 40.0, 33.625 ],
					"proportion" : 0.5
				}

			}
, 			{
				"box" : 				{
					"angle" : 270.0,
					"bgcolor" : [ 0.2, 0.2, 0.2, 1.0 ],
					"id" : "obj-489",
					"maxclass" : "panel",
					"mode" : 0,
					"numinlets" : 1,
					"numoutlets" : 0,
					"patching_rect" : [ 841.0, 109.0, 26.571312570197279, 18.0 ],
					"presentation" : 1,
					"presentation_rect" : [ 55.0, 12.0, 40.0, 33.625 ],
					"proportion" : 0.5
				}

			}
, 			{
				"box" : 				{
					"angle" : 270.0,
					"bgcolor" : [ 0.2, 0.2, 0.2, 1.0 ],
					"id" : "obj-491",
					"maxclass" : "panel",
					"mode" : 0,
					"numinlets" : 1,
					"numoutlets" : 0,
					"patching_rect" : [ 841.0, 109.0, 23.349999999999909, 23.0 ],
					"presentation" : 1,
					"presentation_rect" : [ 8.0, 12.0, 218.133331060125897, 33.625 ],
					"proportion" : 0.5
				}

			}
, 			{
				"box" : 				{
					"angle" : 270.0,
					"bgcolor" : [ 0.301961, 0.301961, 0.301961, 1 ],
					"bordercolor" : [ 0.647058823529412, 0.647058823529412, 0.647058823529412, 1.0 ],
					"id" : "obj-463",
					"maxclass" : "panel",
					"mode" : 0,
					"numinlets" : 1,
					"numoutlets" : 0,
					"patching_rect" : [ 902.5, 1237.0, 30.0, 29.0 ],
					"presentation" : 1,
					"presentation_rect" : [ -3.308334469937051, -0.5, 232.0, 73.0 ],
					"proportion" : 0.5
				}

			}
 ],
		"lines" : [ 			{
				"patchline" : 				{
					"destination" : [ "obj-470", 0 ],
					"source" : [ "obj-11", 0 ]
				}

			}
, 			{
				"patchline" : 				{
					"destination" : [ "obj-9", 0 ],
					"source" : [ "obj-12", 0 ]
				}

			}
, 			{
				"patchline" : 				{
					"destination" : [ "obj-250", 0 ],
					"midpoints" : [ 549.071428571428555, 598.011702097193847, 504.5, 598.011702097193847 ],
					"source" : [ "obj-156", 5 ]
				}

			}
, 			{
				"patchline" : 				{
					"destination" : [ "obj-140", 0 ],
					"source" : [ "obj-193", 0 ]
				}

			}
, 			{
				"patchline" : 				{
					"destination" : [ "obj-123", 0 ],
					"source" : [ "obj-194", 0 ]
				}

			}
, 			{
				"patchline" : 				{
					"destination" : [ "obj-193", 0 ],
					"source" : [ "obj-194", 1 ]
				}

			}
, 			{
				"patchline" : 				{
					"destination" : [ "obj-1073", 0 ],
					"order" : 1,
					"source" : [ "obj-2", 0 ]
				}

			}
, 			{
				"patchline" : 				{
					"destination" : [ "obj-3", 0 ],
					"source" : [ "obj-2", 1 ]
				}

			}
, 			{
				"patchline" : 				{
					"destination" : [ "obj-4", 0 ],
					"source" : [ "obj-2", 2 ]
				}

			}
, 			{
				"patchline" : 				{
					"destination" : [ "obj-476", 0 ],
					"order" : 0,
					"source" : [ "obj-2", 0 ]
				}

			}
, 			{
				"patchline" : 				{
					"destination" : [ "obj-220", 0 ],
					"midpoints" : [ 630.5, 672.039267026713787, 504.5, 672.039267026713787 ],
					"order" : 2,
					"source" : [ "obj-242", 0 ]
				}

			}
, 			{
				"patchline" : 				{
					"destination" : [ "obj-221", 0 ],
					"midpoints" : [ 630.5, 671.039267026713787, 554.5, 671.039267026713787 ],
					"order" : 1,
					"source" : [ "obj-242", 0 ]
				}

			}
, 			{
				"patchline" : 				{
					"destination" : [ "obj-229", 0 ],
					"midpoints" : [ 630.5, 673.039267026713787, 603.5, 673.039267026713787 ],
					"order" : 0,
					"source" : [ "obj-242", 0 ]
				}

			}
, 			{
				"patchline" : 				{
					"destination" : [ "obj-220", 0 ],
					"source" : [ "obj-250", 0 ]
				}

			}
, 			{
				"patchline" : 				{
					"destination" : [ "obj-221", 0 ],
					"source" : [ "obj-250", 1 ]
				}

			}
, 			{
				"patchline" : 				{
					"destination" : [ "obj-229", 0 ],
					"source" : [ "obj-250", 2 ]
				}

			}
, 			{
				"patchline" : 				{
					"destination" : [ "obj-250", 0 ],
					"midpoints" : [ 574.5, 600.593529015828153, 504.5, 600.593529015828153 ],
					"source" : [ "obj-251", 0 ]
				}

			}
, 			{
				"patchline" : 				{
					"destination" : [ "obj-194", 0 ],
					"source" : [ "obj-3", 1 ]
				}

			}
, 			{
				"patchline" : 				{
					"destination" : [ "obj-478", 0 ],
					"source" : [ "obj-3", 0 ]
				}

			}
, 			{
				"patchline" : 				{
					"destination" : [ "obj-37", 0 ],
					"source" : [ "obj-34", 0 ]
				}

			}
, 			{
				"patchline" : 				{
					"destination" : [ "obj-10", 0 ],
					"source" : [ "obj-37", 0 ]
				}

			}
, 			{
				"patchline" : 				{
					"destination" : [ "obj-123", 0 ],
					"midpoints" : [ 716.5, 365.335099500000069, 478.5, 365.335099500000069 ],
					"source" : [ "obj-387", 4 ]
				}

			}
, 			{
				"patchline" : 				{
					"destination" : [ "obj-79", 0 ],
					"midpoints" : [ 695.5, 364.335099500000069, 544.5, 364.335099500000069 ],
					"source" : [ "obj-387", 2 ]
				}

			}
, 			{
				"patchline" : 				{
					"destination" : [ "obj-87", 0 ],
					"midpoints" : [ 706.0, 365.335099500000069, 611.5, 365.335099500000069 ],
					"source" : [ "obj-387", 3 ]
				}

			}
, 			{
				"patchline" : 				{
					"destination" : [ "obj-89", 0 ],
					"midpoints" : [ 685.0, 364.335099500000069, 411.5, 364.335099500000069 ],
					"source" : [ "obj-387", 1 ]
				}

			}
, 			{
				"patchline" : 				{
					"destination" : [ "obj-91", 0 ],
					"midpoints" : [ 674.5, 366.335099500000069, 335.5, 366.335099500000069 ],
					"source" : [ "obj-387", 0 ]
				}

			}
, 			{
				"patchline" : 				{
					"destination" : [ "obj-480", 0 ],
					"source" : [ "obj-4", 0 ]
				}

			}
, 			{
				"patchline" : 				{
					"destination" : [ "obj-482", 0 ],
					"source" : [ "obj-4", 1 ]
				}

			}
, 			{
				"patchline" : 				{
					"destination" : [ "obj-476", 0 ],
					"midpoints" : [ 799.5, 262.75, 335.5, 262.75 ],
					"order" : 3,
					"source" : [ "obj-45", 0 ]
				}

			}
, 			{
				"patchline" : 				{
					"destination" : [ "obj-478", 0 ],
					"midpoints" : [ 799.5, 262.75, 411.5, 262.75 ],
					"order" : 2,
					"source" : [ "obj-45", 0 ]
				}

			}
, 			{
				"patchline" : 				{
					"destination" : [ "obj-480", 0 ],
					"midpoints" : [ 799.5, 262.75, 544.5, 262.75 ],
					"order" : 1,
					"source" : [ "obj-45", 0 ]
				}

			}
, 			{
				"patchline" : 				{
					"destination" : [ "obj-482", 0 ],
					"midpoints" : [ 799.5, 262.75, 611.5, 262.75 ],
					"order" : 0,
					"source" : [ "obj-45", 0 ]
				}

			}
, 			{
				"patchline" : 				{
					"destination" : [ "obj-2", 0 ],
					"source" : [ "obj-470", 0 ]
				}

			}
, 			{
				"patchline" : 				{
					"destination" : [ "obj-483", 0 ],
					"source" : [ "obj-475", 0 ]
				}

			}
, 			{
				"patchline" : 				{
					"destination" : [ "obj-475", 0 ],
					"source" : [ "obj-476", 1 ]
				}

			}
, 			{
				"patchline" : 				{
					"destination" : [ "obj-91", 0 ],
					"source" : [ "obj-476", 0 ]
				}

			}
, 			{
				"patchline" : 				{
					"destination" : [ "obj-486", 0 ],
					"source" : [ "obj-477", 0 ]
				}

			}
, 			{
				"patchline" : 				{
					"destination" : [ "obj-477", 0 ],
					"source" : [ "obj-478", 1 ]
				}

			}
, 			{
				"patchline" : 				{
					"destination" : [ "obj-89", 0 ],
					"source" : [ "obj-478", 0 ]
				}

			}
, 			{
				"patchline" : 				{
					"destination" : [ "obj-485", 0 ],
					"source" : [ "obj-479", 0 ]
				}

			}
, 			{
				"patchline" : 				{
					"destination" : [ "obj-479", 0 ],
					"source" : [ "obj-480", 1 ]
				}

			}
, 			{
				"patchline" : 				{
					"destination" : [ "obj-79", 0 ],
					"source" : [ "obj-480", 0 ]
				}

			}
, 			{
				"patchline" : 				{
					"destination" : [ "obj-484", 0 ],
					"source" : [ "obj-481", 0 ]
				}

			}
, 			{
				"patchline" : 				{
					"destination" : [ "obj-481", 0 ],
					"source" : [ "obj-482", 1 ]
				}

			}
, 			{
				"patchline" : 				{
					"destination" : [ "obj-87", 0 ],
					"source" : [ "obj-482", 0 ]
				}

			}
, 			{
				"patchline" : 				{
					"destination" : [ "obj-156", 0 ],
					"source" : [ "obj-9", 2 ]
				}

			}
 ],
		"parameters" : 		{
			"obj-123::obj-1" : [ "live.text[12]", "live.text", 0 ],
			"obj-123::obj-2" : [ "live.text[11]", "live.text", 0 ],
			"obj-123::obj-3" : [ "live.text[10]", "live.text", 0 ],
			"obj-79::obj-1" : [ "live.text[25]", "live.text", 0 ],
			"obj-79::obj-2" : [ "live.text[23]", "live.text", 0 ],
			"obj-79::obj-3" : [ "live.text[18]", "live.text", 0 ],
			"obj-87::obj-1" : [ "live.text[2]", "live.text", 0 ],
			"obj-87::obj-2" : [ "live.text[1]", "live.text", 0 ],
			"obj-87::obj-3" : [ "live.text[3]", "live.text", 0 ],
			"obj-89::obj-1" : [ "live.text[4]", "live.text", 0 ],
			"obj-89::obj-2" : [ "live.text[6]", "live.text", 0 ],
			"obj-89::obj-3" : [ "live.text[5]", "live.text", 0 ],
			"obj-91::obj-1" : [ "live.text[7]", "live.text", 0 ],
			"obj-91::obj-2" : [ "live.text[9]", "live.text", 0 ],
			"obj-91::obj-3" : [ "live.text[8]", "live.text", 0 ],
			"parameterbanks" : 			{
				"0" : 				{
					"index" : 0,
					"name" : "",
					"parameters" : [ "-", "-", "-", "-", "-", "-", "-", "-" ]
				}

			}
,
			"parameter_overrides" : 			{
				"obj-123::obj-1" : 				{
					"parameter_longname" : "live.text[12]"
				}
,
				"obj-123::obj-2" : 				{
					"parameter_longname" : "live.text[11]"
				}
,
				"obj-123::obj-3" : 				{
					"parameter_longname" : "live.text[10]"
				}
,
				"obj-87::obj-1" : 				{
					"parameter_longname" : "live.text[2]"
				}
,
				"obj-87::obj-2" : 				{
					"parameter_longname" : "live.text[1]"
				}
,
				"obj-87::obj-3" : 				{
					"parameter_longname" : "live.text[3]"
				}
,
				"obj-89::obj-1" : 				{
					"parameter_longname" : "live.text[4]"
				}
,
				"obj-89::obj-2" : 				{
					"parameter_longname" : "live.text[6]"
				}
,
				"obj-89::obj-3" : 				{
					"parameter_longname" : "live.text[5]"
				}
,
				"obj-91::obj-1" : 				{
					"parameter_longname" : "live.text[7]"
				}
,
				"obj-91::obj-2" : 				{
					"parameter_longname" : "live.text[9]"
				}
,
				"obj-91::obj-3" : 				{
					"parameter_longname" : "live.text[8]"
				}

			}
,
			"inherited_shortname" : 1
		}
,
		"dependency_cache" : [ 			{
				"name" : "peakmeter.maxpat",
				"bootpath" : "~/Documents/Somax2-2.6.1/max/somax/patchers/resources/player",
				"patcherrelativepath" : "../../../max/somax/patchers/resources/player",
				"type" : "JSON",
				"implicit" : 1
			}
 ],
		"autosave" : 0,
		"boxgroups" : [ 			{
				"boxes" : [ "obj-87", "obj-484" ]
			}
, 			{
				"boxes" : [ "obj-79", "obj-485" ]
			}
, 			{
				"boxes" : [ "obj-123", "obj-140" ]
			}
, 			{
				"boxes" : [ "obj-89", "obj-486" ]
			}
, 			{
				"boxes" : [ "obj-91", "obj-483" ]
			}
, 			{
				"boxes" : [ "obj-190", "obj-229", "obj-221", "obj-220", "obj-215", "obj-206" ]
			}
 ]
	}

}
